<svg id="Layer_1" data-name="Layer 1" xmlns="http://www.w3.org/2000/svg" xmlns:xlink="http://www.w3.org/1999/xlink" viewBox="0 0 342.14 63.49"><defs><style>.cls-1{fill:none;}.cls-2{clip-path:url(#clip-path);}.cls-3{fill:#d72e30;}</style><clipPath id="clip-path"><rect class="cls-1" x="12.18" y="10.12" width="317.78" height="41.24"/></clipPath></defs><g class="cls-2"><path class="cls-3" d="M25.31,36.48c0,.84,0,1.71-.06,2.59s-.1,1.79-.18,2.72a14.35,14.35,0,0,1-.81,3.46,9.88,9.88,0,0,1-1.81,3.07,8.86,8.86,0,0,1-2.92,2.2,9.39,9.39,0,0,1-4.16.85,3.06,3.06,0,0,1-2.56-.85,3.41,3.41,0,0,1-.63-2.11v-.75a3.73,3.73,0,0,1,.06-.7q4.39,0,6.11-1.74t1.72-5.85v-29a2.41,2.41,0,0,1,.73-.15l.72,0a10.76,10.76,0,0,1,1.43.11,2.29,2.29,0,0,1,1,.55,3.39,3.39,0,0,1,1,1.14,4,4,0,0,1,.39,1.87Z"/><path class="cls-3" d="M42.41,28H56.09v4.64H42.41V46.83H57.72a3.74,3.74,0,0,1,2.86.94,3.27,3.27,0,0,1,.88,2.32,2.15,2.15,0,0,1,0,.45c0,.14,0,.27,0,.39v.42H37.17V11H60.43a2,2,0,0,1,.12.63v.63a3.48,3.48,0,0,1-.78,2.32,3.62,3.62,0,0,1-2.89.94H42.41Z"/><path class="cls-3" d="M94.48,43.34V11a1.76,1.76,0,0,0,.42-.06l.45,0a5.3,5.3,0,0,1,.57,0,4.78,4.78,0,0,1,1.15.15,3,3,0,0,1,1.11.54A2.73,2.73,0,0,1,99,12.7a4.91,4.91,0,0,1,.33,2V51.35H94.48L74,20.08V51.35H69.11V11.16a5.93,5.93,0,0,1,1-.21,10,10,0,0,1,1.33-.09,4.07,4.07,0,0,1,2.08.45A4.36,4.36,0,0,1,75,12.85Z"/><path class="cls-3" d="M161.34,34.66V51.35H156V34.78L143.08,11.46a5,5,0,0,1,1.38-.48,8.45,8.45,0,0,1,1.75-.18,3.68,3.68,0,0,1,2.35.63A6,6,0,0,1,150,13.27l8.74,16.57,8.73-16.09a9.57,9.57,0,0,1,1.57-2,3.4,3.4,0,0,1,2.47-.87,7.56,7.56,0,0,1,1.33.12,12.6,12.6,0,0,1,1.44.36Z"/><path class="cls-3" d="M199.88,27.09h13.56a3.33,3.33,0,0,1,.1.47v1.1a3.75,3.75,0,0,1-.77,2.14,2.72,2.72,0,0,1-1.69.87h-11.2V50.81h-5.24V10.54h23.23a2,2,0,0,1,.12.64v.62a3.48,3.48,0,0,1-.78,2.32,3.69,3.69,0,0,1-3,.94H199.88Z"/><path class="cls-3" d="M231.13,16.5,224.9,35.7h12.4Zm11.12,34.31L238.56,40H223.69l-3.58,10.83h-4.85L228.59,10.9a6.25,6.25,0,0,1,1.16-.36,6.75,6.75,0,0,1,1.54-.18,3.63,3.63,0,0,1,1.9.51,3.53,3.53,0,0,1,1.35,2l12.72,38Z"/><path class="cls-3" d="M259.66,50.81h-5.3V10.48a2,2,0,0,0,.48-.06l.48,0a4.39,4.39,0,0,1,.54,0,5.22,5.22,0,0,1,1.18.15,3.92,3.92,0,0,1,1.23.54,3,3,0,0,1,1,1.15,4.1,4.1,0,0,1,.4,2Z"/><path class="cls-3" d="M289.63,21.92a8.52,8.52,0,0,0-.69-3.67A5.28,5.28,0,0,0,287,16a8.4,8.4,0,0,0-3.13-1.11,25.26,25.26,0,0,0-4.06-.3c-1,0-1.81,0-2.53.06s-1.38.09-2,.18h.11v15h4.34a17.82,17.82,0,0,0,4-.42,8.58,8.58,0,0,0,3.13-1.38,6.58,6.58,0,0,0,2.05-2.47,8.46,8.46,0,0,0,.72-3.67m5.48-.3a13.17,13.17,0,0,1-.72,4.51,11.51,11.51,0,0,1-1.93,3.43,11.12,11.12,0,0,1-2.8,2.41,11.69,11.69,0,0,1-3.4,1.38l11,17.46a4.65,4.65,0,0,1-1.38.42,9.52,9.52,0,0,1-1.44.12A4.79,4.79,0,0,1,290.17,49l-9.39-14.68h-5.36V50.81h-5.23V10.66c1.44-.2,3-.34,4.66-.42s3.26-.12,4.79-.12q8.24,0,11.86,2.8t3.61,8.7"/><path class="cls-3" d="M317,34.14V50.81h-5.3V34.26L298.78,11a5,5,0,0,1,1.38-.48,8.38,8.38,0,0,1,1.75-.18,3.61,3.61,0,0,1,2.34.64,6,6,0,0,1,1.45,1.83l8.73,16.55,8.73-16.07a9.46,9.46,0,0,1,1.56-2,3.4,3.4,0,0,1,2.47-.87,7.37,7.37,0,0,1,1.32.12,12.73,12.73,0,0,1,1.45.36Z"/><path class="cls-3" d="M133.69,43.34V11a1.76,1.76,0,0,0,.42-.06l.45,0a5.17,5.17,0,0,1,.57,0,4.72,4.72,0,0,1,1.15.15,3,3,0,0,1,1.11.54,2.73,2.73,0,0,1,.85,1.15,4.91,4.91,0,0,1,.33,2V51.35h-4.88L113.2,20.08V51.35h-4.88V11.16a5.93,5.93,0,0,1,1-.21,10,10,0,0,1,1.33-.09,4.07,4.07,0,0,1,2.08.45,4.47,4.47,0,0,1,1.42,1.54Z"/></g></svg>